# xmcd
#
# Track frame offsets:
#	150
#	19897
#	45196
#	68409
#	82221
#	95383
#	114970
#	136409
#	159267
#
# Disc length: 2549 seconds
# Revision: 0
# Processed by: cddbd v1.5.2PL0 Copyright (c) Steve Scherf et al.
# Submitted via: dBpowerAMP V12.0
#
DISCID=6309f309
DTITLE=The Mighty Pines - Lonesome Blues
DYEAR=2017
DGENRE=Bluegrass
TTITLE0=Great Divide
TTITLE1=Home
TTITLE2=Western Kentucky Blues
TTITLE3=Ironside
TTITLE4=One of Those Days
TTITLE5=Lonesome Blues
TTITLE6=Midwestern Guy
TTITLE7=Sittin' on Top of the World
TTITLE8=Good Life
EXTD=
EXTT0=
EXTT1=
EXTT2=
EXTT3=
EXTT4=
EXTT5=
EXTT6=
EXTT7=
EXTT8=
PLAYORDER=
